PathFileType	4	(X/Y/Z)	8_coords_data.trc
DataRate	CameraRate	NumFrames	NumMarkers	Units	OrigDataRate	OrigDataStartFrame	OrigNumFrames
30.0	30.0	6	21	m	30.0	52	62
Frame#	Time	THUMB_TIP	THUMB_IP	THUMB_MCP	THUMB_CMC	INDEX_TIP	INDEX_DIP	INDEX_PIP	INDEX_MCP	MIDDLE_TIP	MIDDLE_DIP	MIDDLE_PIP	MIDDLE_MCP	RING_TIP	RING_DIP	RING_PIP	RING_MCP	PINKY_TIP	PINKY_DIP	PINKY_PIP	PINKY_MCP	WRIST
X1	Y1	Z1	X2	Y2	Z2	X3	Y3	Z3	X4	Y4	Z4	X5	Y5	Z5	X6	Y6	Z6	X7	Y7	Z7	X8	Y8	Z8	X9	Y9	Z9	X10	Y10	Z10	X11	Y11	Z11	X12	Y12	Z12	X13	Y13	Z13	X14	Y14	Z14	X15	Y15	Z15	X16	Y16	Z16	X17	Y17	Z17	X18	Y18	Z18	X19	Y19	Z19	X20	Y20	Z20	X21	Y21	Z21
51	1.7	-0.038401798248291014	-0.104072998046875	0.9869400024414062	-0.035465099334716796	-0.07847689819335937	0.9932230224609375	-0.037610401153564454	-0.05339130020141602	1.0038499755859376	-0.03877420043945313	-0.021328399658203125	1.0109600219726562	-0.028599700927734374	-0.0802655029296875	0.8895800170898438	-0.032205799102783206	-0.07144049835205078	0.9091259765625	-0.03798400115966797	-0.06223419952392578	0.9281820068359375	-0.042544898986816404	-0.04456850051879883	0.9602059936523437	-0.030495899200439453	-0.048632099151611326	0.86656201171875	-0.033312999725341796	-0.043273101806640624	0.8900999755859375	-0.04060480117797852	-0.03635169982910156	0.9156589965820312	-0.04444150161743164	-0.025244699478149415	0.9520170288085937	-0.0308518009185791	-0.0196737003326416	0.8699810180664063	-0.0356598014831543	-0.015458800315856934	0.89268798828125	-0.0419718017578125	-0.011397600173950195	0.9165800170898437	-0.042017601013183595	-0.0063742599487304685	0.9504130249023437	-0.02881649971008301	0.016872299194335937	0.8899849853515625	-0.032827499389648435	0.015944700241088867	0.909947021484375	-0.036579200744628906	0.014508099555969238	0.927135986328125	-0.03841529846191406	0.011658300399780273	0.9534140014648438	-0.06218190002441406	0.0070570998191833495	1.022280029296875
52	1.7333333333333334	-0.038648101806640626	-0.10401999664306641	0.9871320190429688	-0.03559529876708984	-0.07844110107421876	0.9934110107421875	-0.03761539840698242	-0.0533931999206543	1.0040999755859374	-0.03877099990844726	-0.021320100784301757	1.0111699829101561	-0.027842899322509766	-0.0803009033203125	0.8898829956054688	-0.03160090065002442	-0.0714126968383789	0.90947900390625	-0.03749959945678711	-0.06220740127563477	0.9284600219726562	-0.04230089950561523	-0.04447539901733399	0.96039599609375	-0.02970859909057617	-0.048451099395751956	0.8667830200195312	-0.032673900604248046	-0.04309830093383789	0.89035498046875	-0.04012749862670899	-0.03620280075073242	0.9158679809570313	-0.04414739990234375	-0.02514389991760254	0.9521290283203125	-0.030351499557495117	-0.019311599731445313	0.8702509765625	-0.035234401702880856	-0.015163800239562989	0.892906005859375	-0.04162099838256836	-0.011198100090026855	0.9167899780273437	-0.04179380035400391	-0.006230720043182373	0.9506270141601563	-0.02859499931335449	0.01720800018310547	0.8903099975585937	-0.032583499908447264	0.016232999801635742	0.9102630004882812	-0.03632519912719727	0.014737099647521972	0.9274409790039062	-0.038200698852539065	0.011804900169372558	0.9536599731445312	-0.062187400817871094	0.007034570217132568	1.02252001953125
53	1.7666666666666666	-0.03841170120239258	-0.10399299621582031	0.9871909790039063	-0.03542319869995117	-0.07853710174560546	0.993489013671875	-0.03745700073242188	-0.05337870025634766	1.0042999877929688	-0.03848809814453125	-0.0213174991607666	1.011489990234375	-0.028194499969482423	-0.08056600189208984	0.8901630249023438	-0.031749799728393556	-0.07161640167236329	0.9097000122070312	-0.037538700103759766	-0.06231039810180664	0.9286820068359375	-0.04209199905395508	-0.044467201232910154	0.96064501953125	-0.030246099472045897	-0.0484572982788086	0.8669819946289062	-0.03298699951171875	-0.043103099822998044	0.8905230102539062	-0.04023619842529297	-0.03622539901733399	0.9161439819335937	-0.04388639831542969	-0.024999000549316405	0.952530029296875	-0.030917699813842774	-0.01919809913635254	0.8703519897460937	-0.03560279846191406	-0.015076800346374512	0.8931240234375	-0.041766899108886715	-0.01115310001373291	0.9170460205078125	-0.04152920150756836	-0.006156829833984375	0.9509600219726563	-0.028696800231933595	0.017192800521850585	0.8905679931640625	-0.03257569885253906	0.01622410011291504	0.9104940185546875	-0.036205501556396485	0.014718700408935546	0.9276589965820312	-0.03799720001220703	0.011767800331115724	0.953969970703125	-0.06197949981689453	0.0070406699180603025	1.0228099975585938
54	1.8	-0.038434600830078124	-0.10411599731445312	0.9873179931640625	-0.035428699493408204	-0.07864600372314454	0.99368798828125	-0.037373199462890624	-0.05345019912719726	1.0046300048828125	-0.03846580123901367	-0.021473899841308593	1.0117000122070312	-0.02830550003051758	-0.0808323974609375	0.8904409790039063	-0.03179680061340332	-0.07186620330810548	0.9099739990234375	-0.0375369987487793	-0.06250170135498047	0.9289760131835938	-0.04205410003662109	-0.04458779907226563	0.9608560180664063	-0.030172100067138673	-0.048538799285888674	0.8672219848632813	-0.03287300109863281	-0.04322140121459961	0.8907680053710938	-0.04009420013427734	-0.03633250045776367	0.9163469848632813	-0.04389149856567383	-0.02518840026855469	0.95272900390625	-0.030414100646972655	-0.019340599060058594	0.870718017578125	-0.035222599029541016	-0.01520800018310547	0.8934459838867187	-0.041480998992919925	-0.01126159954071045	0.9173590087890625	-0.041464599609375	-0.006360479831695557	0.951155029296875	-0.028189199447631836	0.017014999389648438	0.8909080200195313	-0.03213629913330078	0.01606570053100586	0.9108980102539063	-0.035853401184082034	0.01456659984588623	0.9280430297851563	-0.037739398956298825	0.011643899917602538	0.9542860107421876	-0.06196020126342774	0.006931159973144531	1.0230900268554688
55	1.8333333333333333	-0.03821620178222656	-0.10422200012207031	0.9871420288085937	-0.03524829864501953	-0.07873680114746094	0.9936300048828125	-0.03724829864501953	-0.05362810134887695	1.0046199951171875	-0.038342201232910156	-0.021714000701904296	1.0118099975585937	-0.02792289924621582	-0.08066400146484375	0.890468994140625	-0.031520299911499024	-0.07181050109863281	0.91006201171875	-0.03730419921875	-0.0625374984741211	0.9290549926757813	-0.04194020080566406	-0.0446697998046875	0.9610330200195313	-0.029971500396728516	-0.048290298461914065	0.86731201171875	-0.03272669982910156	-0.04304830169677734	0.8909530029296875	-0.040005199432373045	-0.03625979995727539	0.91656201171875	-0.04381110000610351	-0.025273199081420897	0.9529099731445313	-0.030093599319458007	-0.019123199462890626	0.871030029296875	-0.03496239852905274	-0.015073800086975097	0.8936480102539063	-0.04130130004882813	-0.011214500427246093	0.9175910034179687	-0.041296699523925784	-0.006390749931335449	0.9514249877929688	-0.028074499130249023	0.01720319938659668	0.8911929931640625	-0.03206209945678711	0.01617569923400879	0.9111370239257812	-0.0357958984375	0.014616900444030762	0.9282659912109374	-0.03771070098876953	0.011519499778747559	0.9545059814453125	-0.061998001098632814	0.006809289932250977	1.0233699951171875
56	1.8666666666666667	-0.03872079849243164	-0.1044020004272461	0.9873569946289062	-0.03554629898071289	-0.07887809753417968	0.993801025390625	-0.03750469970703125	-0.05380849838256836	1.0046300048828125	-0.038410900115966796	-0.021834199905395507	1.0118400268554688	-0.028997900009155274	-0.08102279663085937	0.89052197265625	-0.03239360046386719	-0.07206829833984375	0.9101389770507813	-0.037994800567626955	-0.0627422981262207	0.9291630249023437	-0.04231259918212891	-0.04486669921875	0.9611719970703125	-0.031219100952148436	-0.04859820175170899	0.8673280029296875	-0.03373109817504883	-0.04330730056762695	0.890968017578125	-0.04078070068359375	-0.03646799850463867	0.9165960083007813	-0.044179100036621094	-0.025368900299072267	0.9532020263671875	-0.031027299880981445	-0.019390100479125975	0.8708930053710937	-0.03576630020141602	-0.015314900398254394	0.8936179809570313	-0.041958499908447265	-0.011408300399780273	0.9175869750976563	-0.0416427001953125	-0.00654138994216919	0.9514660034179687	-0.028865699768066407	0.017306499481201172	0.8911510009765625	-0.032705299377441405	0.01617970085144043	0.9111110229492188	-0.03634759902954102	0.014549699783325196	0.928301025390625	-0.03805849838256836	0.011351400375366211	0.9544970092773437	-0.06200370025634765	0.0067165598869323734	1.0235499877929688
